Music_DragonsDen::
	channel_count 3
	channel 1, Music_DragonsDen_Ch1
	channel 2, Music_DragonsDen_Ch2
	channel 3, Music_DragonsDen_Ch3

Music_DragonsDen_Ch1::
	tempo 102
	duty_cycle 2
	vibrato 8, 2, 3
	note_type 12, 11, 0
	octave 5
	note D#, 12
	note D_, 4
	note D#, 12
	note D_, 1
.mainloop:
	octave 5
	note D_, 3
	note D#, 6
	note F_, 4
	note F#, 6
	note A_, 16
	note G#, 12
	note G_, 4
	note C#, 16
	rest 16
	octave 6
	note C#, 1
	rest 3
	octave 5
	note G#, 1
	rest 3
	note G#, 1
	rest 3
	note G#, 1
	rest 3
	octave 6
	note C#, 1
	rest 3
	octave 5
	note G#, 1
	rest 3
	note G#, 1
	rest 3
	note G#, 1
	rest 3
	octave 6
	note C#, 1
	rest 3
	octave 5
	note G#, 1
	rest 3
	note G#, 1
	rest 3
	note G#, 1
	rest 3
	octave 6
	note C#, 1
	rest 3
	octave 5
	note G#, 1
	rest 3
	note G#, 1
	rest 3
	note G#, 1
	rest 3
	octave 6
	note C#, 1
	rest 3
	octave 5
	note G#, 1
	rest 3
	note G#, 1
	rest 3
	note G#, 1
	rest 3
	octave 6
	note C#, 1
	rest 3
	octave 5
	note G#, 1
	rest 3
	note G#, 1
	rest 3
	note G#, 1
	rest 3
	octave 6
	note C#, 1
	rest 3
	octave 5
	note G#, 1
	rest 3
	note G#, 1
	rest 3
	note G#, 1
	rest 3
	octave 6
	note C#, 1
	rest 3
	octave 5
	note G#, 1
	rest 3
	note G#, 1
	rest 3
	note G#, 1
	rest 16
	rest 3
	note D#, 12
	note D_, 4
	note D#, 12
	note D_, 4
	note D#, 6
	note F_, 4
	note F#, 6
	note A_, 16
	note G#, 12
	note G_, 4
	note C#, 16
	rest 16
	octave 6
	note C#, 1
	rest 3
	octave 5
	note G#, 1
	rest 3
	note G#, 1
	rest 3
	note G#, 1
	rest 3
	octave 6
	note C#, 1
	rest 3
	octave 5
	note G#, 1
	rest 3
	note G#, 1
	rest 3
	note G#, 1
	rest 3
	octave 6
	note C#, 1
	rest 3
	octave 5
	note G#, 1
	rest 3
	note G#, 1
	rest 3
	note G#, 1
	rest 3
	octave 6
	note C#, 1
	rest 3
	octave 5
	note G#, 1
	rest 3
	note G#, 1
	rest 3
	note G#, 1
	rest 3
	octave 6
	note C#, 1
	rest 3
	octave 5
	note G#, 1
	rest 3
	note G#, 1
	rest 3
	note G#, 1
	rest 3
	octave 6
	note C#, 1
	rest 3
	octave 5
	note G#, 1
	rest 3
	note G#, 1
	rest 3
	note G#, 1
	rest 3
	octave 6
	note C#, 1
	rest 3
	octave 5
	note G#, 1
	rest 3
	note G#, 1
	rest 3
	note G#, 1
	rest 3
	octave 6
	note C#, 1
	rest 3
	octave 5
	note G#, 1
	rest 3
	note G#, 1
	rest 3
	note G#, 1
	rest 16
	rest 3
	note D#, 12
	note D_, 4
	note D#, 12
	note D_, 1
	sound_loop 0, Music_DragonsDen_Ch1.mainloop

Music_DragonsDen_Ch2::
	duty_cycle 1
	vibrato 6, 2, 4
	note_type 12, 11, 0
	octave 4
	note A#, 12
	note A_, 4
	note A#, 12
	note A_, 1
.mainloop:
	octave 4
	note A_, 3
	note A#, 6
	octave 5
	note C_, 4
	note C#, 6
	note E_, 16
	note D#, 12
	note D_, 4
	octave 4
	note G#, 16
	rest 16
	rest 2
	octave 5
	note C#, 1
	rest 2
	note C#, 1
	rest 2
	note C#, 1
	rest 2
	note C#, 1
	rest 2
	note C#, 1
	rest 3
	note C#, 1
	rest 2
	note C#, 1
	rest 2
	note C#, 1
	rest 3
	note C#, 1
	rest 1
	note C#, 1
	rest 5
	note C#, 1
	rest 2
	note C#, 1
	rest 2
	note C#, 1
	rest 2
	note C#, 1
	rest 2
	note C#, 1
	rest 3
	note C#, 1
	rest 2
	note C#, 1
	rest 2
	note C#, 1
	rest 3
	note C#, 1
	rest 1
	note C#, 1
	rest 5
	note C#, 1
	rest 2
	note C#, 1
	rest 2
	note C#, 1
	rest 2
	note C#, 1
	rest 2
	note C#, 1
	rest 3
	note C#, 1
	rest 2
	note C#, 1
	rest 2
	note C#, 1
	rest 3
	note C#, 1
	rest 1
	note C#, 1
	rest 5
	note C#, 1
	rest 2
	note C#, 1
	rest 2
	note C#, 1
	rest 2
	note C#, 1
	rest 2
	note C#, 1
	rest 3
	note C#, 1
	rest 2
	note C#, 1
	rest 2
	note C#, 1
	rest 3
	note C#, 1
	rest 1
	note C#, 1
	rest 11
	octave 4
	note A#, 12
	note A_, 4
	note A#, 12
	note A_, 4
	note A#, 6
	octave 5
	note C_, 4
	note C#, 6
	note E_, 16
	note D#, 12
	note D_, 4
	octave 4
	note G#, 16
	rest 16
	rest 2
	octave 5
	note C#, 1
	rest 2
	note C#, 1
	rest 2
	note C#, 1
	rest 2
	note C#, 1
	rest 2
	note C#, 1
	rest 3
	note C#, 1
	rest 2
	note C#, 1
	rest 2
	note C#, 1
	rest 3
	note C#, 1
	rest 1
	note C#, 1
	rest 5
	note C#, 1
	rest 2
	note C#, 1
	rest 2
	note C#, 1
	rest 2
	note C#, 1
	rest 2
	note C#, 1
	rest 3
	note C#, 1
	rest 2
	note C#, 1
	rest 2
	note C#, 1
	rest 3
	note C#, 1
	rest 1
	note C#, 1
	rest 5
	note C#, 1
	rest 2
	note C#, 1
	rest 2
	note C#, 1
	rest 2
	note C#, 1
	rest 2
	note C#, 1
	rest 3
	note C#, 1
	rest 2
	note C#, 1
	rest 2
	note C#, 1
	rest 3
	note C#, 1
	rest 1
	note C#, 1
	rest 5
	note C#, 1
	rest 2
	note C#, 1
	rest 2
	note C#, 1
	rest 2
	note C#, 1
	rest 2
	note C#, 1
	rest 3
	note C#, 1
	rest 2
	note C#, 1
	rest 2
	note C#, 1
	rest 3
	note C#, 1
	rest 1
	note C#, 1
	rest 11
	octave 4
	note A#, 12
	note A_, 4
	note A#, 12
	note A_, 1
	sound_loop 0, Music_DragonsDen_Ch2.mainloop

Music_DragonsDen_Ch3::
	note_type 12, 1, 0
	octave 4
	note C#, 3
	octave 3
	note G#, 1
	octave 4
	note C#, 1
	octave 3
	note G#, 2
	octave 4
	note C#, 2
	octave 3
	note G#, 1
	octave 4
	note C#, 1
	octave 3
	note G#, 2
	octave 4
	note C#, 2
	octave 3
	note G#, 1
	octave 4
	note C#, 3
	octave 3
	note G#, 1
	octave 4
	note C#, 1
	octave 3
	note G#, 2
	octave 4
	note C#, 2
	octave 3
	note G#, 1
	octave 4
	note C#, 1
	octave 3
	note G#, 2
.mainloop:
	octave 4
	note C#, 2
	octave 3
	note G#, 1
	octave 4
	note C#, 3
	octave 3
	note G#, 1
	octave 4
	note C#, 1
	octave 3
	note G#, 2
	octave 4
	note C#, 2
	octave 3
	note G#, 1
	octave 4
	note C#, 1
	octave 3
	note G#, 2
	octave 4
	note C#, 2
	octave 3
	note G#, 1
	octave 4
	note C#, 3
	octave 3
	note G#, 1
	octave 4
	note C#, 1
	octave 3
	note G#, 2
	octave 4
	note C#, 2
	octave 3
	note G#, 1
	octave 4
	note C#, 1
	octave 3
	note G#, 2
	octave 4
	note C#, 2
	octave 3
	note G#, 1
	octave 4
	note C#, 3
	octave 3
	note G#, 1
	octave 4
	note C#, 1
	octave 3
	note G#, 2
	octave 4
	note C#, 2
	octave 3
	note G#, 1
	octave 4
	note C#, 1
	octave 3
	note G#, 2
	octave 4
	note C#, 2
	octave 3
	note G#, 1
	octave 4
	note C#, 3
	octave 3
	note G#, 1
	octave 4
	note C#, 1
	octave 3
	note G#, 2
	octave 4
	note C#, 2
	octave 3
	note G#, 1
	octave 4
	note C#, 1
	octave 3
	note G#, 2
	octave 4
	note C#, 2
	octave 3
	note G#, 1
	octave 4
	note C#, 3
	octave 3
	note G#, 1
	octave 4
	note C#, 1
	octave 3
	note G#, 2
	octave 4
	note C#, 2
	octave 3
	note G#, 1
	octave 4
	note C#, 1
	octave 3
	note G#, 2
	octave 4
	note C#, 2
	octave 3
	note G#, 1
	octave 4
	note C#, 3
	octave 3
	note G#, 1
	octave 4
	note C#, 1
	octave 3
	note G#, 2
	octave 4
	note C#, 2
	octave 3
	note G#, 1
	octave 4
	note C#, 1
	octave 3
	note G#, 2
	octave 4
	note C#, 2
	octave 3
	note G#, 1
	octave 4
	note C#, 3
	octave 3
	note G#, 1
	octave 4
	note C#, 1
	octave 3
	note G#, 2
	octave 4
	note C#, 2
	octave 3
	note G#, 1
	octave 4
	note C#, 1
	octave 3
	note G#, 2
	octave 4
	note C#, 2
	octave 3
	note G#, 1
	octave 4
	note C#, 3
	octave 3
	note G#, 1
	octave 4
	note C#, 1
	octave 3
	note G#, 2
	octave 4
	note C#, 2
	octave 3
	note G#, 1
	octave 4
	note C#, 1
	octave 3
	note G#, 2
	octave 4
	note C#, 2
	octave 3
	note G#, 1
	octave 4
	note C#, 3
	octave 3
	note G#, 1
	octave 4
	note C#, 1
	octave 3
	note G#, 2
	octave 4
	note C#, 2
	octave 3
	note G#, 1
	octave 4
	note C#, 1
	octave 3
	note G#, 2
	octave 4
	note C#, 2
	octave 3
	note G#, 1
	octave 4
	note C#, 3
	octave 3
	note G#, 1
	octave 4
	note C#, 1
	octave 3
	note G#, 2
	octave 4
	note C#, 2
	octave 3
	note G#, 1
	octave 4
	note C#, 1
	octave 3
	note G#, 2
	octave 4
	note C#, 2
	octave 3
	note G#, 1
	octave 4
	note C#, 3
	octave 3
	note G#, 1
	octave 4
	note C#, 1
	octave 3
	note G#, 2
	octave 4
	note C#, 2
	octave 3
	note G#, 1
	octave 4
	note C#, 1
	octave 3
	note G#, 2
	octave 4
	note C#, 2
	octave 3
	note G#, 1
	octave 4
	note C#, 3
	octave 3
	note G#, 1
	octave 4
	note C#, 1
	octave 3
	note G#, 2
	octave 4
	note C#, 2
	octave 3
	note G#, 1
	octave 4
	note C#, 1
	octave 3
	note G#, 2
	octave 4
	note C#, 2
	octave 3
	note G#, 1
	octave 4
	note C#, 3
	octave 3
	note G#, 1
	octave 4
	note C#, 1
	octave 3
	note G#, 2
	octave 4
	note C#, 2
	octave 3
	note G#, 1
	octave 4
	note C#, 1
	octave 3
	note G#, 2
	octave 4
	note C#, 2
	octave 3
	note G#, 1
	rest 16
	note C#, 3
	octave 2
	note G#, 1
	octave 3
	note C#, 1
	octave 2
	note G#, 2
	octave 3
	note C#, 2
	octave 2
	note G#, 1
	octave 3
	note C#, 1
	octave 2
	note G#, 2
	octave 3
	note C#, 2
	octave 2
	note G#, 1
	octave 3
	note C#, 3
	octave 2
	note G#, 1
	octave 3
	note C#, 1
	octave 2
	note G#, 2
	octave 3
	note C#, 2
	octave 2
	note G#, 1
	octave 3
	note C#, 1
	octave 2
	note G#, 2
	octave 3
	note C#, 2
	octave 2
	note G#, 1
	octave 3
	note C#, 3
	octave 2
	note G#, 1
	octave 3
	note C#, 1
	octave 2
	note G#, 2
	octave 3
	note C#, 2
	octave 2
	note G#, 1
	octave 3
	note C#, 1
	octave 2
	note G#, 2
	octave 3
	note C#, 2
	octave 2
	note G#, 1
	octave 3
	note C#, 3
	octave 2
	note G#, 1
	octave 3
	note C#, 1
	octave 2
	note G#, 2
	octave 3
	note C#, 2
	octave 2
	note G#, 1
	octave 3
	note C#, 1
	octave 2
	note G#, 2
	octave 3
	note C#, 2
	octave 2
	note G#, 1
	octave 3
	note C#, 3
	octave 2
	note G#, 1
	octave 3
	note C#, 1
	octave 2
	note G#, 2
	octave 3
	note C#, 2
	octave 2
	note G#, 1
	octave 3
	note C#, 1
	octave 2
	note G#, 2
	octave 3
	note C#, 2
	octave 2
	note G#, 1
	octave 3
	note C#, 3
	octave 2
	note G#, 1
	octave 3
	note C#, 1
	octave 2
	note G#, 2
	octave 3
	note C#, 2
	octave 2
	note G#, 1
	octave 3
	note C#, 1
	octave 2
	note G#, 2
	octave 3
	note C#, 2
	octave 2
	note G#, 1
	octave 3
	note C#, 3
	octave 2
	note G#, 1
	octave 3
	note C#, 1
	octave 2
	note G#, 2
	octave 3
	note C#, 2
	octave 2
	note G#, 1
	octave 3
	note C#, 1
	octave 2
	note G#, 2
	octave 3
	note C#, 2
	octave 2
	note G#, 1
	octave 3
	note C#, 3
	octave 2
	note G#, 1
	octave 3
	note C#, 1
	octave 2
	note G#, 2
	octave 3
	note C#, 2
	octave 2
	note G#, 1
	octave 3
	note C#, 1
	octave 2
	note G#, 2
	octave 3
	note C#, 2
	octave 2
	note G#, 1
	octave 3
	note C#, 3
	octave 2
	note G#, 1
	octave 3
	note C#, 1
	octave 2
	note G#, 2
	octave 3
	note C#, 2
	octave 2
	note G#, 1
	octave 3
	note C#, 1
	octave 2
	note G#, 2
	octave 3
	note C#, 2
	octave 2
	note G#, 1
	octave 3
	note C#, 3
	octave 2
	note G#, 1
	octave 3
	note C#, 1
	octave 2
	note G#, 2
	octave 3
	note C#, 2
	octave 2
	note G#, 1
	octave 3
	note C#, 1
	octave 2
	note G#, 2
	octave 3
	note C#, 2
	octave 2
	note G#, 1
	octave 3
	note C#, 3
	octave 2
	note G#, 1
	octave 3
	note C#, 1
	octave 2
	note G#, 2
	octave 3
	note C#, 2
	octave 2
	note G#, 1
	octave 3
	note C#, 1
	octave 2
	note G#, 2
	octave 3
	note C#, 2
	octave 2
	note G#, 1
	octave 3
	note C#, 3
	octave 2
	note G#, 1
	octave 3
	note C#, 1
	octave 2
	note G#, 2
	octave 3
	note C#, 2
	octave 2
	note G#, 1
	octave 3
	note C#, 1
	octave 2
	note G#, 2
	octave 3
	note C#, 2
	octave 2
	note G#, 1
	octave 3
	note C#, 3
	octave 2
	note G#, 1
	octave 3
	note C#, 1
	octave 2
	note G#, 2
	octave 3
	note C#, 2
	octave 2
	note G#, 1
	octave 3
	note C#, 1
	octave 2
	note G#, 2
	octave 3
	note C#, 2
	octave 2
	note G#, 1
	octave 3
	note C#, 3
	octave 2
	note G#, 1
	octave 3
	note C#, 1
	octave 2
	note G#, 2
	octave 3
	note C#, 2
	octave 2
	note G#, 1
	octave 3
	note C#, 1
	octave 2
	note G#, 2
	octave 3
	note C#, 2
	octave 2
	note G#, 1
	octave 3
	note C#, 3
	octave 2
	note G#, 1
	octave 3
	note C#, 1
	octave 2
	note G#, 2
	octave 3
	note C#, 2
	octave 2
	note G#, 1
	octave 3
	note C#, 1
	octave 2
	note G#, 2
	octave 3
	note C#, 2
	octave 2
	note G#, 1
	octave 3
	note C#, 3
	octave 2
	note G#, 1
	octave 3
	note C#, 1
	octave 2
	note G#, 2
	octave 3
	note C#, 2
	octave 2
	note G#, 1
	octave 3
	note C#, 1
	octave 2
	note G#, 2
	octave 3
	note C#, 2
	octave 2
	note G#, 1
	octave 4
	note C#, 3
	octave 3
	note G#, 1
	octave 4
	note C#, 1
	octave 3
	note G#, 2
	octave 4
	note C#, 2
	octave 3
	note G#, 1
	octave 4
	note C#, 1
	octave 3
	note G#, 2
	octave 4
	note C#, 2
	octave 3
	note G#, 1
	octave 4
	note C#, 3
	octave 3
	note G#, 1
	octave 4
	note C#, 1
	octave 3
	note G#, 2
	octave 4
	note C#, 2
	octave 3
	note G#, 1
	octave 4
	note C#, 1
	octave 3
	note G#, 2
	sound_loop 0, Music_DragonsDen_Ch3.mainloop

