Music_EliteFourBattle::
	channel_count 3
	channel 1, Music_EliteFourBattle_Ch1
	channel 2, Music_EliteFourBattle_Ch2
	channel 3, Music_EliteFourBattle_Ch3

Music_EliteFourBattle_Ch1::
	tempo 144
	duty_cycle 2
	vibrato 8, 2, 3
	note_type 12, 11, 0
	octave 5
	note A#, 1
	note G#, 1
	note A#, 1
	octave 6
	note D#, 1
	octave 5
	note A#, 1
	note G#, 1
	note A#, 1
	octave 6
	note D#, 1
	octave 5
	note A#, 1
	note G#, 1
	note A#, 1
	octave 6
	note D#, 1
	octave 5
	note A#, 1
	note G#, 1
	note A#, 1
	octave 6
	note D#, 1
	octave 5
	note A#, 1
	note G#, 1
	note A#, 1
	octave 6
	note D#, 1
	octave 5
	note A#, 1
	note G#, 1
	note A#, 1
	octave 6
	note D#, 1
	octave 5
	note A#, 1
	note G#, 1
	note A#, 1
	octave 6
	note D#, 1
	octave 5
	note A#, 1
	note G#, 1
	note A#, 1
	octave 6
	note D#, 1
	octave 4
	note D#, 2
	note D#, 2
	note F#, 1
	note E_, 1
	note D#, 1
	note F#, 1
	note D#, 2
	note D#, 2
	note A#, 1
	note G#, 1
	note F#, 1
	note A#, 1
	note D#, 2
	note D#, 2
	note B_, 1
	note A#, 1
	note G#, 1
	note B_, 1
	note C#, 2
	note E_, 2
	note D#, 2
	note D#, 2
	note F#, 1
	note E_, 1
	note D#, 1
	note F#, 1
	note D#, 2
	note D#, 2
	note A#, 1
	note G#, 1
	note F#, 1
	note A#, 1
	note D#, 2
	note D#, 2
	note B_, 1
	note A#, 1
	note G#, 1
	note B_, 1
	note G#, 2
	note B_, 2
	octave 5
	note D#, 2
	note D#, 2
	note F#, 1
	note E_, 1
	note D#, 1
	note F#, 1
	note D#, 2
	note D#, 2
	note A#, 1
	note G#, 1
	note F#, 1
	note A#, 1
	note D#, 2
	note D#, 2
	note B_, 1
	note A#, 1
	note G#, 1
	note B_, 1
	note C#, 2
	note E_, 2
	note D#, 2
	note D#, 2
	note F#, 1
	note E_, 1
	note D#, 1
	note F#, 1
	note D#, 2
	note D#, 2
	note A#, 1
	note G#, 1
	note F#, 1
	note A#, 1
	note D#, 2
	note D#, 2
	note B_, 1
	note A#, 1
	note G#, 1
	note B_, 1
	note G#, 2
	note B_, 2
.mainloop:
	octave 4
	note A#, 2
	note A#, 2
	note G#, 2
	note G#, 2
	note A#, 2
	note A#, 2
	note B_, 2
	octave 5
	note C#, 2
	note C#, 2
	octave 4
	note B_, 2
	note B_, 2
	note A#, 2
	note G#, 2
	note F#, 2
	note G#, 2
	note A#, 2
	note E_, 8
	note G#, 8
	note B_, 10
	note G#, 6
	note A#, 2
	note A#, 2
	note G#, 2
	note G#, 2
	note A#, 2
	note A#, 2
	note B_, 2
	octave 5
	note C#, 2
	note C#, 2
	octave 4
	note B_, 2
	note B_, 2
	note A#, 2
	note G#, 2
	note F#, 2
	note G#, 2
	note A#, 2
	note E_, 8
	note G#, 8
	note B_, 10
	octave 5
	note E_, 6
	note D#, 16
	rest 6
	octave 6
	note E_, 3
	rest 1
	note E_, 3
	rest 1
	note E_, 2
	note D#, 16
	rest 12
	octave 4
	note A#, 4
	note B_, 4
	note G#, 4
	note A#, 4
	note B_, 4
	note G#, 4
	note E_, 4
	note D#, 16
	note D#, 16
	note D#, 4
	note A#, 4
	note B_, 4
	note G#, 4
	note A#, 4
	note B_, 4
	note G#, 4
	note B_, 4
	note A#, 16
	octave 5
	note D#, 16
	octave 4
	note C#, 2
	note C#, 2
	note F_, 8
	octave 5
	note C#, 3
	rest 1
	note F_, 2
	note C#, 3
	rest 1
	note G#, 4
	note G_, 2
	note F_, 2
	note D#, 2
	octave 4
	note D#, 2
	note D#, 2
	note G_, 8
	octave 5
	note D#, 3
	rest 1
	note G_, 2
	note D#, 3
	rest 1
	note A#, 6
	octave 4
	note A_, 4
	sound_loop 0, Music_EliteFourBattle_Ch1.mainloop

Music_EliteFourBattle_Ch2::
	duty_cycle 1
	vibrato 6, 2, 4
	note_type 12, 11, 0
	octave 4
	note A#, 1
	note A_, 1
	note G#, 1
	note A_, 1
	note G#, 1
	note G_, 1
	note G#, 1
	note G_, 1
	note F#, 1
	note G_, 1
	note F#, 1
	note F_, 1
	note F#, 1
	note F_, 1
	note E_, 1
	note F_, 1
	note E_, 1
	note D#, 1
	note E_, 1
	note D#, 1
	note D_, 1
	note D#, 1
	note D_, 1
	note C#, 1
	note D_, 1
	note C#, 1
	note C_, 1
	note C#, 1
	note C_, 1
	octave 3
	note B_, 1
	note A#, 1
	note B_, 1
	note A#, 2
	note A#, 2
	rest 4
	note A#, 2
	note A#, 2
	rest 4
	note A#, 2
	note A#, 2
	rest 6
	note B_, 2
	note A#, 2
	note A#, 2
	rest 4
	note A#, 2
	note A#, 2
	rest 4
	note A#, 2
	note A#, 2
	rest 6
	octave 4
	note E_, 2
	octave 3
	note A#, 2
	note A#, 2
	rest 4
	note A#, 2
	note A#, 2
	rest 4
	note A#, 2
	note A#, 2
	rest 6
	note B_, 2
	note A#, 2
	note A#, 2
	rest 4
	note A#, 2
	note A#, 2
	rest 4
	note A#, 2
	octave 4
	note E_, 4
	note E_, 4
	note E_, 2
.mainloop:
	octave 4
	note D#, 2
	octave 3
	note A#, 2
	octave 4
	note D#, 2
	note E_, 4
	note D#, 2
	note C#, 2
	octave 3
	note A#, 2
	note D#, 2
	note G#, 2
	note A#, 2
	octave 4
	note D#, 2
	note E_, 2
	note D#, 2
	note C#, 2
	octave 3
	note A#, 2
	note G#, 8
	note B_, 8
	octave 4
	note D#, 10
	note E_, 6
	note D#, 2
	octave 3
	note A#, 2
	octave 4
	note D#, 2
	note E_, 4
	note D#, 2
	note C#, 2
	octave 3
	note A#, 2
	note D#, 2
	note G#, 2
	note A#, 2
	octave 4
	note D#, 2
	note E_, 2
	note D#, 2
	note C#, 2
	note D#, 2
	note C#, 8
	octave 3
	note B_, 8
	note G#, 10
	octave 4
	note E_, 6
	note D#, 2
	note D#, 2
	note G_, 1
	note E_, 1
	note D#, 1
	note G_, 1
	note D#, 2
	note D#, 2
	note A#, 1
	note G#, 1
	note E_, 1
	note A#, 1
	note D#, 2
	note D#, 2
	note B_, 1
	note A#, 1
	note G#, 1
	note B_, 1
	note D#, 2
	note E_, 2
	note D#, 2
	note D#, 2
	note G_, 1
	note E_, 1
	note D#, 1
	note G_, 1
	note D#, 2
	note D#, 2
	note A#, 1
	note G#, 1
	note E_, 1
	note A#, 1
	note D#, 2
	note D#, 2
	note B_, 1
	note A#, 1
	note G#, 1
	note B_, 1
	note G#, 2
	note B_, 2
	note D#, 2
	note C#, 2
	octave 3
	note A#, 4
	note D#, 2
	note F#, 2
	note A#, 2
	octave 4
	note E_, 2
	note D#, 4
	note C#, 2
	octave 3
	note A#, 2
	note A#, 2
	note D#, 2
	note A#, 2
	octave 4
	note C#, 2
	octave 3
	note B_, 8
	note A#, 8
	note G#, 10
	note B_, 6
	octave 4
	note D#, 2
	note C#, 2
	octave 3
	note A#, 4
	note D#, 2
	note F#, 2
	note A#, 2
	octave 4
	note E_, 2
	note D#, 4
	note C#, 2
	octave 3
	note A#, 2
	note A#, 2
	note G#, 2
	note A#, 2
	octave 4
	note C#, 2
	note E_, 8
	note F#, 8
	note G_, 16
	octave 3
	note G#, 2
	note G#, 2
	octave 4
	note C#, 12
	note G#, 2
	note F_, 4
	octave 3
	note F_, 4
	note G_, 2
	note G#, 2
	note A#, 2
	note A#, 2
	note A#, 2
	octave 4
	note D#, 12
	note A#, 2
	note G_, 4
	octave 5
	note D#, 6
	octave 4
	note D_, 4
	sound_loop 0, Music_EliteFourBattle_Ch2.mainloop

Music_EliteFourBattle_Ch3::
	note_type 12, 1, 0
	octave 2
	note E_, 2
	note B_, 2
	rest 2
	note B_, 2
	rest 2
	note B_, 2
	rest 2
	note B_, 2
	rest 2
	note B_, 2
	rest 2
	note B_, 2
	rest 2
	note B_, 2
	note G#, 2
	note B_, 2
	note D#, 1
	rest 1
	note D#, 1
	rest 1
	note F#, 4
	note D#, 1
	rest 1
	note D#, 1
	rest 1
	note A#, 4
	note D#, 1
	rest 1
	note D#, 1
	rest 1
	note B_, 4
	note C#, 1
	rest 1
	note E_, 2
	note D#, 1
	rest 1
	note D#, 1
	rest 1
	note F#, 4
	note D#, 1
	rest 1
	note D#, 1
	rest 1
	note A#, 4
	note D#, 1
	rest 1
	note D#, 1
	rest 1
	note B_, 4
	note D#, 1
	rest 1
	note E_, 2
	note D#, 1
	rest 1
	note D#, 1
	rest 1
	note F#, 4
	note D#, 1
	rest 1
	note D#, 1
	rest 1
	note A#, 4
	note D#, 1
	rest 1
	note D#, 1
	rest 1
	note B_, 4
	note C#, 1
	rest 1
	note E_, 2
	note D#, 1
	rest 1
	note D#, 1
	rest 1
	note F#, 4
	note D#, 1
	rest 1
	note D#, 1
	rest 1
	note A#, 4
	note D#, 1
	rest 1
	note D#, 1
	rest 1
	note B_, 4
	note D#, 1
	rest 1
	note E_, 2
.mainloop:
	octave 2
	note D#, 2
	note A#, 2
	note D#, 2
	note A#, 2
	note D#, 2
	note A#, 2
	note D#, 2
	note A#, 2
	note D#, 2
	note A#, 2
	note D#, 2
	note A#, 2
	note D#, 2
	note A#, 2
	note D#, 2
	note A#, 2
	note E_, 2
	note B_, 2
	note E_, 2
	note B_, 2
	note E_, 2
	note B_, 2
	note E_, 2
	note B_, 2
	octave 1
	note B_, 2
	octave 2
	note E_, 2
	octave 1
	note B_, 2
	octave 2
	note E_, 4
	note B_, 2
	octave 3
	note E_, 2
	octave 2
	note B_, 2
	note F#, 2
	octave 3
	note C#, 2
	octave 2
	note F#, 2
	octave 3
	note C#, 2
	octave 2
	note F#, 2
	octave 3
	note C#, 2
	octave 2
	note F#, 2
	octave 3
	note C#, 2
	octave 2
	note F#, 2
	octave 3
	note C#, 2
	octave 2
	note F#, 2
	octave 3
	note C#, 2
	octave 2
	note F#, 2
	octave 3
	note C#, 2
	octave 2
	note F#, 2
	octave 3
	note C#, 2
	octave 2
	note E_, 2
	note B_, 2
	note E_, 2
	note B_, 2
	note E_, 2
	note B_, 2
	note E_, 2
	note B_, 2
	note E_, 2
	note B_, 2
	note E_, 2
	note B_, 2
	note E_, 2
	note B_, 2
	octave 3
	note E_, 2
	octave 2
	note B_, 2
	note D#, 1
	rest 1
	note D#, 1
	rest 1
	note A#, 4
	note D#, 1
	rest 1
	note D#, 1
	rest 1
	note B_, 4
	note D#, 1
	rest 1
	note D#, 1
	rest 1
	note A#, 4
	note D#, 1
	rest 1
	note E_, 2
	note D#, 1
	rest 1
	note D#, 1
	rest 1
	note A#, 4
	note D#, 1
	rest 1
	note D#, 1
	rest 1
	note B_, 4
	note D#, 1
	rest 1
	note D#, 1
	rest 1
	note A#, 4
	note D#, 1
	rest 1
	note E_, 2
	note D#, 2
	note A#, 2
	note D#, 2
	note A#, 2
	note D#, 2
	note A#, 2
	note D#, 2
	note A#, 2
	note D#, 2
	note A#, 2
	note D#, 2
	note A#, 2
	note D#, 2
	note A#, 2
	octave 3
	note C#, 2
	octave 2
	note A#, 2
	note E_, 2
	note B_, 2
	octave 3
	note E_, 2
	octave 2
	note E_, 2
	note B_, 2
	octave 3
	note E_, 2
	octave 2
	note E_, 2
	note B_, 2
	note E_, 2
	note B_, 2
	note E_, 2
	note B_, 2
	note E_, 2
	note B_, 2
	note E_, 2
	note B_, 2
	note F#, 2
	octave 3
	note C#, 2
	octave 2
	note F#, 2
	octave 3
	note C#, 2
	octave 2
	note F#, 2
	octave 3
	note C#, 2
	octave 2
	note F#, 2
	octave 3
	note C#, 2
	octave 2
	note F#, 2
	octave 3
	note C#, 2
	octave 2
	note F#, 2
	octave 3
	note C#, 2
	octave 2
	note F#, 2
	octave 3
	note C#, 2
	octave 2
	note A#, 2
	octave 3
	note C#, 2
	octave 2
	note D#, 2
	note A#, 2
	octave 3
	note E_, 2
	note F#, 2
	note G#, 2
	note F#, 2
	note E_, 2
	octave 2
	note B_, 2
	note D#, 2
	note A#, 2
	note D#, 2
	note A#, 2
	note D#, 2
	note A#, 2
	note D#, 2
	note A#, 2
	note C#, 2
	note G#, 2
	note C#, 2
	note G#, 2
	note C#, 2
	note G#, 2
	note C#, 2
	note G#, 2
	note C#, 2
	note G#, 2
	note C#, 2
	note G#, 2
	note C#, 2
	note G#, 2
	note C#, 2
	note G#, 2
	note D#, 2
	note A#, 2
	note D#, 2
	note A#, 2
	note D#, 2
	note A#, 2
	note D#, 2
	note A#, 2
	octave 3
	note D#, 2
	octave 2
	note A#, 2
	note D#, 2
	note D_, 4
	note A#, 2
	octave 3
	note D#, 2
	note F_, 2
	sound_loop 0, Music_EliteFourBattle_Ch3.mainloop

