Music_GameCornerNew::
	channel_count 3
	channel 1, Music_GameCornerNew_Ch1
	channel 2, Music_GameCornerNew_Ch2
	channel 3, Music_GameCornerNew_Ch3

Music_GameCornerNew_Ch1::
	tempo 100
	duty_cycle 2
	vibrato 8, 2, 3
	note_type 12, 11, 0
	rest 8
.mainloop:
	rest 16
	rest 16
	rest 16
	rest 16
	rest 2
	octave 5
	note A#, 2
	rest 1
	note G_, 2
	rest 1
	note D#, 2
	rest 1
	octave 4
	note F_, 2
	rest 1
	note F_, 2
	rest 2
	note G#, 2
	rest 1
	note G#, 2
	rest 1
	note A#, 1
	rest 1
	note A#, 1
	rest 1
	note G#, 1
	note A#, 3
	rest 2
	octave 5
	note A#, 2
	rest 1
	note G_, 2
	rest 1
	note D#, 2
	rest 1
	octave 4
	note F_, 2
	rest 1
	note F_, 2
	rest 2
	note G#, 2
	rest 1
	note G#, 2
	rest 1
	note A#, 1
	rest 1
	note A#, 1
	rest 1
	note G#, 1
	note A#, 3
	rest 2
	octave 5
	note A#, 2
	rest 1
	note G_, 2
	rest 1
	note D#, 2
	rest 1
	octave 4
	note F_, 2
	rest 1
	note F_, 2
	rest 2
	note G#, 2
	rest 1
	note G#, 2
	rest 1
	note A#, 1
	rest 1
	note A#, 1
	rest 1
	note G#, 1
	note A#, 3
	rest 2
	octave 5
	note A#, 2
	rest 1
	note G_, 2
	rest 1
	note D#, 2
	rest 1
	octave 4
	note F_, 2
	rest 1
	note F_, 2
	rest 16
	rest 16
	rest 16
	rest 16
	rest 16
	rest 2
	octave 5
	note A#, 2
	rest 1
	note G_, 2
	rest 1
	note D#, 2
	rest 1
	octave 4
	note F_, 2
	rest 1
	note F_, 2
	rest 2
	note G#, 2
	rest 1
	note G#, 2
	rest 1
	note A#, 1
	rest 1
	note A#, 1
	rest 1
	note G#, 1
	note A#, 3
	rest 2
	octave 5
	note A#, 2
	rest 1
	note G_, 2
	rest 1
	note D#, 2
	rest 1
	octave 4
	note F_, 2
	rest 1
	note F_, 2
	rest 2
	note G#, 2
	rest 1
	note G#, 2
	rest 1
	note A#, 1
	rest 1
	note A#, 1
	rest 1
	note G#, 1
	note A#, 3
	rest 2
	octave 5
	note A#, 2
	rest 1
	note G_, 2
	rest 1
	note D#, 2
	rest 1
	octave 4
	note F_, 2
	rest 1
	note F_, 2
	rest 2
	note G#, 2
	rest 1
	note G#, 2
	rest 1
	note A#, 1
	rest 1
	note A#, 1
	rest 1
	note G#, 1
	note A#, 3
	rest 2
	octave 5
	note A#, 2
	rest 1
	note G_, 2
	rest 1
	note D#, 2
	rest 1
	octave 4
	note F_, 2
	rest 1
	note F_, 2
	rest 2
	note G#, 2
	rest 1
	note G#, 2
	rest 1
	note A#, 1
	rest 1
	note A#, 1
	rest 1
	note G#, 1
	rest 1
	note G_, 1
	rest 1
	octave 5
	note G#, 1
	octave 6
	note C_, 1
	note F_, 1
	note C_, 1
	octave 5
	note G#, 1
	octave 6
	note C_, 1
	note F_, 1
	note C_, 1
	octave 5
	note G#, 1
	octave 6
	note C_, 1
	note F_, 1
	note C_, 1
	octave 5
	note G#, 1
	octave 6
	note C_, 1
	note F_, 1
	note C_, 1
	octave 5
	note A#, 1
	octave 6
	note D_, 1
	note G_, 1
	note D_, 1
	octave 5
	note A#, 1
	octave 6
	note D_, 1
	note G_, 1
	note D_, 1
	octave 5
	note A#, 1
	octave 6
	note D_, 1
	note G_, 1
	note D_, 1
	octave 5
	note A#, 1
	octave 6
	note D_, 1
	note G_, 1
	note D_, 1
	octave 5
	note D#, 1
	note G_, 1
	octave 6
	note C_, 1
	octave 5
	note G_, 1
	note D#, 1
	note G_, 1
	octave 6
	note C_, 1
	octave 5
	note G_, 1
	note D#, 1
	note G_, 1
	octave 6
	note C_, 1
	octave 5
	note G_, 1
	note D#, 1
	note G_, 1
	octave 6
	note C_, 1
	octave 5
	note G_, 1
	note F_, 1
	note A_, 1
	octave 6
	note C_, 1
	octave 5
	note A_, 1
	note F_, 1
	note A_, 1
	octave 6
	note C_, 1
	octave 5
	note A_, 1
	note F_, 1
	note A_, 1
	octave 6
	note C_, 1
	octave 5
	note A_, 1
	note F_, 1
	note A_, 1
	octave 6
	note C_, 1
	octave 5
	note A_, 1
	note G#, 1
	octave 6
	note C_, 1
	note F_, 1
	note C_, 1
	octave 5
	note G#, 1
	octave 6
	note C_, 1
	note F_, 1
	note C_, 1
	octave 5
	note G#, 1
	octave 6
	note C_, 1
	note F_, 1
	note C_, 1
	octave 5
	note G#, 1
	octave 6
	note C_, 1
	note F_, 1
	note C_, 1
	octave 5
	note A#, 1
	octave 6
	note D_, 1
	note G_, 1
	note D_, 1
	octave 5
	note A#, 1
	octave 6
	note D_, 1
	note G_, 1
	note D_, 1
	octave 5
	note A#, 1
	octave 6
	note D_, 1
	note G_, 1
	note D_, 1
	octave 5
	note A#, 1
	octave 6
	note D_, 1
	note G_, 1
	note D_, 1
	octave 5
	note B_, 1
	octave 6
	note D_, 1
	note G_, 1
	note D_, 1
	octave 5
	note B_, 1
	octave 6
	note D_, 1
	note G_, 1
	note D_, 1
	octave 5
	note B_, 1
	octave 6
	note D_, 1
	note G_, 1
	note D_, 1
	octave 5
	note B_, 1
	octave 6
	note D_, 1
	note G_, 1
	note D_, 1
	octave 4
	note D_, 1
	note D_, 1
	note D_, 1
	rest 2
	note F_, 1
	rest 1
	note F_, 1
	rest 8
	sound_loop 0, Music_GameCornerNew_Ch1.mainloop

Music_GameCornerNew_Ch2::
	duty_cycle 1
	vibrato 6, 2, 4
	note_type 12, 11, 0
	rest 8
.mainloop:
	octave 2
	note C_, 2
	octave 4
	note D#, 2
	rest 1
	note D#, 2
	rest 1
	note D#, 2
	rest 1
	note F_, 2
	rest 1
	note F_, 2
	octave 2
	note C_, 2
	octave 4
	note D#, 2
	rest 1
	note D#, 2
	rest 1
	note F_, 2
	note F_, 2
	note D#, 1
	note F_, 2
	rest 1
	octave 2
	note C_, 2
	octave 4
	note D#, 2
	rest 1
	note D#, 2
	rest 1
	note D#, 2
	rest 1
	note F_, 2
	rest 1
	note F_, 2
	octave 2
	note C_, 2
	octave 4
	note D#, 2
	rest 1
	note D#, 2
	rest 1
	note F_, 2
	note C_, 2
	note D#, 1
	note F_, 2
	rest 1
	octave 2
	note C_, 2
	octave 6
	note D_, 2
	rest 1
	octave 5
	note A#, 2
	rest 1
	note G_, 2
	note C_, 2
	note D_, 2
	note D#, 2
	note F_, 2
	note D#, 2
	note F_, 1
	note D#, 2
	note F_, 3
	note G_, 4
	note F#, 1
	note F_, 1
	octave 2
	note C_, 2
	octave 6
	note D_, 2
	rest 1
	octave 5
	note A#, 2
	rest 1
	note G_, 2
	note C_, 2
	note D_, 2
	note D#, 2
	octave 2
	note F_, 1
	octave 5
	note F_, 1
	note D#, 2
	note G_, 1
	note D#, 2
	note A#, 3
	note A_, 2
	note A#, 1
	octave 6
	note C_, 2
	rest 1
	octave 2
	note C_, 2
	octave 6
	note D_, 2
	rest 1
	octave 5
	note A#, 2
	rest 1
	note G_, 2
	note C_, 2
	note D_, 2
	note D#, 2
	note F_, 2
	note D#, 2
	note F_, 1
	note D#, 2
	note F_, 3
	note G_, 4
	note F#, 1
	note F_, 1
	octave 2
	note C_, 2
	octave 6
	note D_, 2
	rest 1
	octave 5
	note A#, 2
	rest 1
	note G_, 2
	note C_, 2
	note D_, 2
	note D#, 2
	octave 2
	note F_, 2
	octave 4
	note G#, 2
	octave 2
	note F_, 1
	octave 4
	note G#, 2
	note G#, 3
	note G_, 2
	note A#, 1
	octave 5
	note C_, 2
	rest 1
	octave 2
	note C_, 2
	octave 4
	note D#, 2
	rest 1
	note D#, 2
	rest 1
	note D#, 2
	rest 1
	note F_, 2
	rest 1
	note F_, 2
	octave 2
	note C_, 2
	octave 4
	note D#, 2
	rest 1
	note D#, 2
	rest 1
	note F_, 2
	note F_, 2
	note D#, 1
	note F_, 2
	rest 1
	octave 2
	note C_, 2
	octave 4
	note D#, 2
	rest 1
	note D#, 2
	rest 1
	note D#, 2
	rest 1
	note F_, 2
	rest 1
	note F_, 2
	octave 2
	note C_, 2
	octave 4
	note D#, 2
	rest 1
	note D#, 2
	rest 1
	note F_, 2
	note C_, 2
	note D#, 1
	note F_, 2
	rest 1
	octave 2
	note C_, 2
	octave 6
	note D_, 2
	rest 1
	octave 5
	note A#, 2
	rest 1
	note G_, 2
	note C_, 2
	note D_, 2
	note D#, 2
	note F_, 2
	note D#, 2
	note F_, 1
	note D#, 2
	note F_, 3
	note G_, 4
	note F#, 1
	note F_, 1
	octave 2
	note C_, 2
	octave 6
	note D_, 2
	rest 1
	octave 5
	note A#, 2
	rest 1
	note G_, 2
	note C_, 2
	note D_, 2
	note D#, 2
	octave 2
	note F_, 1
	octave 5
	note F_, 1
	note D#, 2
	note G_, 1
	note D#, 2
	note A#, 3
	note A_, 2
	note A#, 1
	octave 6
	note C_, 2
	rest 1
	octave 2
	note C_, 2
	octave 6
	note D_, 2
	rest 1
	octave 5
	note A#, 2
	rest 1
	note G_, 2
	note C_, 2
	note D_, 2
	note D#, 2
	note F_, 2
	note D#, 2
	note F_, 1
	note D#, 2
	note F_, 3
	note G_, 4
	note F#, 1
	note F_, 1
	octave 2
	note C_, 2
	octave 6
	note D_, 2
	rest 1
	octave 5
	note A#, 2
	rest 1
	note G_, 2
	note C_, 2
	note D_, 2
	note D#, 2
	note F_, 2
	note D#, 2
	note F_, 1
	note D#, 2
	note G_, 3
	note F_, 4
	octave 4
	note D#, 1
	note F_, 1
	note G_, 6
	note F_, 6
	note C_, 4
	note D_, 6
	note D#, 6
	note F_, 4
	note D_, 6
	note C_, 6
	octave 3
	note A#, 4
	note A_, 6
	rest 8
	octave 4
	note D#, 1
	note F_, 1
	note G_, 6
	note F_, 6
	note C_, 4
	note D_, 6
	note D#, 6
	note F_, 2
	note D#, 1
	note F_, 1
	note G_, 16
	note G_, 1
	note G_, 1
	note G_, 2
	rest 1
	note A#, 2
	note A#, 2
	rest 7
	sound_loop 0, Music_GameCornerNew_Ch2.mainloop

Music_GameCornerNew_Ch3::
	note_type 12, 1, 0
	octave 2
	note A#, 1
	note E_, 1
	note E_, 1
	note A#, 1
	note E_, 1
	note A#, 1
	note E_, 1
	note A#, 1
.mainloop:
	octave 2
	note A#, 1
	note G#, 1
	note A#, 1
	rest 1
	note A#, 1
	note G#, 1
	note A#, 1
	rest 1
	note F_, 1
	rest 1
	note A#, 1
	rest 1
	note A#, 1
	note G#, 1
	note A#, 1
	rest 1
	note F#, 1
	rest 1
	note A#, 1
	rest 1
	note E_, 1
	note G#, 1
	note A#, 1
	rest 1
	note F#, 1
	rest 1
	note A#, 1
	rest 1
	note E_, 1
	note G#, 1
	note A#, 1
	rest 1
	note F#, 1
	rest 1
	note A#, 1
	rest 1
	note E_, 1
	note G#, 1
	note A#, 1
	rest 1
	note F#, 1
	rest 1
	note A#, 1
	rest 1
	note A#, 1
	note G#, 1
	note A#, 1
	rest 1
	note F_, 1
	rest 1
	note A#, 1
	rest 1
	note A#, 1
	note G#, 1
	note A#, 1
	rest 1
	note F_, 1
	rest 1
	note A#, 1
	rest 1
	note A#, 1
	note G#, 1
	note A#, 1
	rest 1
	note F_, 1
	note G#, 1
	note A#, 1
	rest 1
	note A#, 1
	note G#, 1
	note A#, 1
	rest 1
	note F#, 1
	rest 1
	note A#, 1
	rest 1
	note E_, 1
	note G#, 1
	note A#, 1
	rest 1
	note F_, 1
	rest 1
	note A#, 1
	rest 1
	note A#, 1
	note G#, 1
	note A#, 1
	rest 1
	note F#, 1
	rest 1
	note A#, 1
	rest 1
	note A#, 1
	note G#, 1
	note A#, 1
	rest 1
	note F#, 1
	rest 1
	note A#, 1
	rest 1
	note E_, 1
	note G#, 1
	note A#, 1
	rest 1
	note F#, 1
	rest 1
	note A#, 1
	rest 1
	note E_, 1
	note G#, 1
	note A#, 1
	rest 1
	note F_, 1
	rest 1
	note A#, 1
	rest 1
	note A#, 1
	note G#, 1
	note A#, 1
	rest 1
	note F#, 1
	rest 1
	note A#, 1
	rest 1
	note E_, 1
	note E_, 1
	note A#, 1
	rest 1
	note F_, 1
	note G#, 1
	note A#, 1
	rest 1
	note A#, 1
	note G#, 1
	note A#, 1
	rest 1
	note F#, 1
	rest 1
	note A#, 1
	rest 1
	note A#, 1
	note G#, 1
	note A#, 1
	rest 1
	note F#, 1
	rest 1
	note A#, 1
	rest 1
	note E_, 1
	note G#, 1
	note A#, 1
	rest 1
	note F_, 1
	rest 1
	note A#, 1
	rest 1
	note A#, 1
	note G#, 1
	note A#, 1
	rest 1
	note F_, 1
	rest 1
	note A#, 1
	rest 1
	note E_, 1
	note G#, 1
	note A#, 1
	rest 1
	note F#, 1
	rest 1
	note A#, 1
	rest 1
	note E_, 1
	note G#, 1
	note A#, 1
	rest 13
	note E_, 1
	note E_, 1
	note A#, 1
	rest 1
	note E_, 1
	note G#, 1
	note A#, 1
	rest 1
	note E_, 1
	note G#, 1
	note A#, 1
	rest 1
	note F_, 1
	rest 1
	note A#, 1
	rest 1
	note A#, 1
	note G#, 1
	note A#, 1
	rest 1
	note F#, 1
	rest 1
	note A#, 1
	rest 1
	note E_, 1
	note G#, 1
	note A#, 1
	rest 1
	note F_, 1
	rest 1
	note A#, 1
	rest 1
	note E_, 1
	note G#, 1
	note A#, 1
	rest 1
	note F#, 1
	rest 1
	note A#, 1
	rest 1
	note E_, 1
	note G#, 1
	note A#, 1
	rest 1
	note F#, 1
	rest 1
	note A#, 1
	rest 1
	note E_, 1
	note G#, 1
	note A#, 1
	rest 1
	note F#, 1
	rest 1
	note A#, 1
	rest 1
	note E_, 1
	note G#, 1
	note A#, 1
	rest 1
	note F#, 1
	rest 1
	note A#, 1
	rest 1
	note A#, 1
	note G#, 1
	note A#, 1
	rest 1
	note F_, 1
	note G#, 1
	note A#, 1
	rest 1
	note A#, 1
	note G#, 1
	note A#, 1
	rest 1
	note F_, 1
	rest 1
	note A#, 1
	rest 1
	note E_, 1
	note G#, 1
	note A#, 1
	rest 1
	note F_, 1
	rest 1
	note A#, 1
	rest 1
	note E_, 1
	note G#, 1
	note A#, 1
	rest 1
	note F_, 1
	rest 1
	note A#, 1
	rest 1
	note E_, 1
	note G#, 1
	note A#, 1
	rest 1
	note F_, 1
	rest 1
	note A#, 1
	rest 1
	note E_, 1
	note G#, 1
	note A#, 1
	rest 1
	note F#, 1
	rest 1
	note A#, 1
	rest 1
	note A#, 1
	note G#, 1
	note A#, 1
	rest 1
	note F#, 1
	rest 1
	note A#, 1
	rest 1
	note A#, 1
	note G#, 1
	note A#, 1
	rest 1
	note F_, 1
	rest 1
	note A#, 1
	rest 1
	note A#, 1
	note A#, 1
	note A#, 1
	rest 1
	note F#, 1
	note G#, 1
	note A#, 1
	rest 1
	note E_, 1
	note G#, 1
	note A#, 1
	rest 1
	note F#, 1
	rest 1
	note A#, 1
	rest 1
	note A#, 1
	note G#, 1
	note A#, 1
	rest 1
	note F#, 1
	rest 1
	note A#, 1
	rest 1
	note E_, 1
	note G#, 1
	note A#, 1
	rest 1
	note F_, 1
	rest 1
	note A#, 1
	rest 1
	note A#, 1
	note G#, 1
	note A#, 1
	rest 1
	note F#, 1
	rest 1
	note A#, 1
	rest 1
	note E_, 1
	note G#, 1
	note A#, 1
	rest 1
	note F_, 1
	rest 1
	note A#, 1
	rest 1
	note A#, 1
	note G#, 1
	note A#, 1
	rest 1
	note F_, 1
	rest 1
	note A#, 1
	rest 1
	note E_, 1
	note G#, 1
	note A#, 1
	rest 1
	note F#, 1
	rest 1
	note A#, 1
	rest 1
	note A#, 1
	note A#, 1
	note E_, 1
	note A#, 1
	note F_, 1
	rest 1
	note A#, 1
	note F#, 1
	note A#, 1
	note F#, 1
	note A#, 1
	note F#, 1
	note E_, 1
	note E_, 1
	note A#, 1
	note F_, 1
	note E_, 1
	note G#, 1
	note A#, 1
	rest 1
	note F#, 1
	rest 1
	note A#, 1
	note F#, 1
	note A#, 1
	note F#, 1
	note A#, 1
	note F_, 1
	note E_, 1
	note E_, 1
	note A#, 1
	note F#, 1
	note A#, 1
	note G#, 1
	note A#, 1
	rest 1
	note F_, 1
	rest 1
	note A#, 1
	note F#, 1
	note A#, 1
	note F_, 1
	note A#, 1
	note F_, 1
	note E_, 1
	note A#, 1
	note A#, 1
	note F#, 1
	note A#, 1
	note G#, 1
	note A#, 1
	rest 1
	note F_, 1
	rest 1
	note A#, 1
	note F_, 1
	note A#, 1
	note F_, 1
	note A#, 1
	note F#, 1
	note E_, 1
	note A#, 1
	note A#, 1
	note F_, 1
	note A#, 1
	note G#, 1
	note A#, 1
	note A#, 1
	note F#, 1
	rest 1
	note A#, 1
	note F_, 1
	note E_, 1
	note F#, 1
	note A#, 1
	note F#, 1
	note A#, 1
	note E_, 1
	note A#, 1
	note F_, 1
	note A#, 1
	note G#, 1
	note A#, 1
	rest 1
	note F_, 1
	rest 1
	note A#, 1
	note F_, 1
	note A#, 1
	note F#, 1
	note A#, 1
	note F#, 1
	note E_, 1
	note A#, 1
	note A#, 1
	note F_, 1
	note A#, 1
	note G#, 1
	note A#, 1
	rest 1
	note F_, 1
	rest 1
	note A#, 1
	note F_, 1
	note A#, 1
	note F_, 1
	note A#, 1
	note F#, 1
	note E_, 1
	note A#, 1
	note A#, 1
	note F_, 1
	note A#, 1
	note G#, 1
	note A#, 1
	rest 1
	note A#, 1
	note E_, 1
	note A#, 1
	note G#, 1
	note F#, 1
	note A#, 1
	rest 1
	note A#, 1
	rest 4
	note E_, 1
	note A#, 1
	note F#, 1
	rest 1
	sound_loop 0, Music_GameCornerNew_Ch3.mainloop

