Music_LegendaryBirds::
	channel_count 3
	channel 1, Music_LegendaryBirds_Ch1
	channel 2, Music_LegendaryBirds_Ch2
	channel 3, Music_LegendaryBirds_Ch3

Music_LegendaryBirds_Ch1::
	tempo 144
	duty_cycle 2
	vibrato 8, 2, 3
	note_type 12, 11, 0
	octave 5
	note A_, 1
	note A_, 1
	octave 6
	note D_, 1
	note D_, 1
	note E_, 1
	note E_, 1
	octave 5
	note A_, 1
	note A_, 1
	octave 6
	note E_, 1
	note E_, 1
	octave 5
	note A_, 1
	note A_, 1
	octave 6
	note E_, 1
	note E_, 1
	octave 5
	note A_, 1
	note A_, 1
	octave 6
	note E_, 1
	note E_, 1
	octave 5
	note A_, 1
	note A_, 1
	octave 6
	note E_, 1
	note E_, 1
	octave 5
	note A_, 1
	note A_, 1
	octave 6
	note E_, 1
	note E_, 1
	octave 5
	note A_, 1
	note A_, 1
	octave 6
	note E_, 1
	note E_, 1
	octave 5
	note A_, 1
	note A_, 4
	rest 16
	rest 9
	note F_, 4
	note E_, 2
	rest 16
	rest 10
	note F_, 4
	note E_, 4
	note E_, 2
	rest 6
	note E_, 2
	rest 6
	note E_, 2
	rest 6
	note F_, 4
	note E_, 4
	note E_, 2
	rest 6
	note E_, 2
	rest 6
	note E_, 2
	rest 6
	note E_, 2
	octave 4
	note E_, 1
	note G_, 1
	note A_, 8
	note B_, 8
	note D_, 8
	octave 5
	note D_, 16
	rest 16
	rest 8
.mainloop:
	octave 5
	note C_, 8
	note D_, 8
	octave 4
	note G_, 8
	octave 5
	note F_, 8
	note E_, 16
	octave 4
	note F_, 4
	note G_, 4
	note F_, 2
	note E_, 2
	note D_, 4
	note A_, 8
	note B_, 8
	note D_, 8
	octave 5
	note D_, 16
	rest 16
	rest 8
	note C_, 8
	note D_, 8
	octave 4
	note G_, 8
	octave 5
	note F_, 8
	note E_, 16
	note C_, 8
	note G_, 8
	octave 4
	note F#, 2
	note G_, 2
	rest 2
	note B_, 4
	note A_, 2
	note G_, 2
	note F#, 2
	note F#, 2
	note G_, 2
	note B_, 2
	note F#, 2
	note F#, 2
	note B_, 2
	note B_, 2
	note F#, 2
	note G_, 2
	note C_, 2
	rest 2
	octave 5
	note C_, 10
	note G_, 2
	note C_, 2
	rest 2
	octave 6
	note C_, 10
	octave 5
	note F#, 2
	note G_, 2
	rest 2
	note B_, 4
	note A_, 2
	note G_, 2
	note F#, 2
	note F#, 2
	note G_, 2
	note B_, 2
	note F#, 2
	note B_, 2
	note F#, 2
	note E_, 2
	note F#, 2
	note G_, 8
	note F#, 8
	note E_, 8
	note G_, 8
	octave 4
	note F#, 2
	note F#, 2
	rest 4
	note F#, 2
	note F#, 2
	rest 4
	note F#, 2
	note F#, 2
	rest 4
	note F#, 2
	note G_, 6
	note F#, 2
	note F#, 2
	rest 4
	note F#, 2
	note F#, 2
	rest 4
	note F#, 2
	note F#, 2
	rest 4
	note F#, 2
	note G_, 3
	note A_, 1
	octave 5
	note D_, 1
	note F_, 1
	note F#, 2
	note F#, 2
	rest 4
	note F#, 2
	note F#, 2
	rest 4
	note F#, 2
	note F#, 2
	rest 4
	note F#, 2
	note G_, 6
	note F#, 2
	note F#, 2
	rest 4
	note F#, 2
	note F#, 2
	rest 4
	note F#, 2
	note F#, 2
	rest 4
	note F#, 2
	note G_, 6
	octave 4
	note F#, 8
	octave 3
	note B_, 8
	octave 4
	note G_, 8
	note E_, 8
	note F#, 8
	octave 3
	note B_, 8
	octave 4
	note C_, 16
	octave 2
	note F#, 8
	note B_, 8
	note G_, 8
	octave 3
	note C_, 8
	octave 2
	note B_, 8
	note F#, 8
	note G_, 16
	sound_loop 0, Music_LegendaryBirds_Ch1.mainloop

Music_LegendaryBirds_Ch2::
	duty_cycle 1
	vibrato 6, 2, 4
	note_type 12, 11, 0
	rest 16
	rest 16
	octave 3
	note A_, 2
	note A_, 2
	note E_, 2
	note A_, 2
	note A_, 2
	note A_, 2
	note E_, 2
	note A_, 2
	note A_, 2
	note A_, 2
	note E_, 2
	note A_, 2
	note A_, 2
	note A_, 2
	note E_, 4
	note A_, 2
	note A_, 2
	note E_, 2
	note A_, 2
	note A_, 2
	note A_, 2
	note E_, 2
	note A_, 2
	note A_, 2
	note A_, 2
	note E_, 2
	note A_, 2
	note A_, 2
	note A_, 2
	note E_, 4
	note A_, 2
	note A_, 2
	note E_, 2
	note A_, 2
	note A_, 2
	note A_, 2
	note E_, 2
	note A_, 2
	note A_, 2
	note A_, 2
	note E_, 2
	note A_, 2
	note A_, 2
	note A_, 2
	note E_, 4
	note A_, 2
	note A_, 2
	note E_, 2
	note A_, 2
	note A_, 2
	note A_, 2
	note E_, 2
	note A_, 2
	note A_, 2
	note A_, 2
	note E_, 2
	note A_, 2
	note A_, 2
	note A_, 2
	note E_, 4
	note A_, 2
	note B_, 2
	note D_, 2
	octave 4
	note E_, 4
	note D_, 2
	note C_, 2
	octave 3
	note B_, 2
	note D_, 2
	note B_, 2
	note D_, 2
	octave 4
	note D_, 4
	note C_, 2
	octave 3
	note B_, 2
	note A_, 2
	note D_, 2
	note B_, 2
	note D_, 2
	octave 4
	note D_, 4
	note C_, 2
	octave 3
	note B_, 2
	note A_, 2
	note A_, 2
	octave 4
	note D_, 2
	note A_, 2
	note E_, 2
	octave 3
	note A_, 2
	octave 4
	note D_, 2
	note A_, 2
	note E_, 2
.mainloop:
	octave 4
	note C_, 2
	note D_, 2
	octave 3
	note G_, 2
	octave 4
	note G_, 4
	note F_, 2
	note E_, 2
	note C_, 2
	note C_, 2
	note D_, 2
	octave 3
	note F_, 2
	octave 4
	note F_, 4
	note E_, 2
	note D_, 2
	note C_, 2
	note C_, 2
	note D_, 2
	octave 3
	note G_, 2
	octave 4
	note G_, 4
	note F_, 2
	note E_, 2
	note C_, 2
	note G_, 2
	note F_, 2
	note C_, 2
	note C_, 2
	octave 5
	note C_, 2
	octave 4
	note B_, 2
	note A_, 2
	note G_, 2
	octave 3
	note A_, 2
	note B_, 2
	note D_, 2
	octave 4
	note E_, 4
	note D_, 2
	note C_, 2
	octave 3
	note B_, 2
	note D_, 2
	note B_, 2
	note D_, 2
	octave 4
	note D_, 4
	note C_, 2
	octave 3
	note B_, 2
	note A_, 2
	note D_, 2
	note B_, 2
	note D_, 2
	octave 4
	note D_, 4
	note C_, 2
	octave 3
	note B_, 2
	note A_, 2
	note A_, 2
	octave 4
	note D_, 2
	note A_, 2
	note E_, 2
	octave 3
	note A_, 2
	octave 4
	note D_, 2
	note A_, 2
	note E_, 2
	note C_, 2
	note D_, 2
	octave 3
	note G_, 2
	octave 4
	note G_, 4
	note F_, 2
	note E_, 2
	note C_, 2
	note C_, 2
	note D_, 2
	octave 3
	note F_, 2
	octave 4
	note F_, 4
	note E_, 2
	note D_, 2
	note C_, 2
	octave 5
	note C_, 2
	octave 4
	note A_, 2
	note G_, 2
	note A_, 4
	note G_, 2
	note F_, 2
	note A_, 2
	note G_, 2
	note F_, 2
	note C_, 2
	note C_, 2
	octave 5
	note C_, 2
	octave 4
	note B_, 2
	note A_, 2
	note G_, 2
	octave 3
	note B_, 2
	octave 4
	note C_, 2
	rest 2
	note E_, 2
	rest 2
	note D_, 2
	note C_, 2
	octave 3
	note A_, 2
	note B_, 2
	octave 4
	note D_, 2
	note E_, 2
	note D_, 2
	octave 3
	note B_, 2
	octave 4
	note C_, 2
	note E_, 2
	octave 3
	note B_, 2
	octave 4
	note C_, 2
	octave 3
	note G_, 2
	rest 2
	octave 4
	note G_, 10
	rest 16
	octave 3
	note B_, 2
	octave 4
	note C_, 2
	rest 2
	note E_, 4
	note D_, 2
	note C_, 2
	octave 3
	note A_, 2
	note B_, 2
	octave 4
	note D_, 2
	note E_, 2
	note D_, 2
	octave 3
	note B_, 2
	octave 4
	note C_, 2
	note E_, 2
	octave 3
	note B_, 2
	octave 4
	note C_, 2
	note G_, 2
	octave 5
	note C_, 2
	octave 4
	note G_, 2
	octave 3
	note B_, 2
	octave 4
	note G_, 2
	note B_, 2
	note F#, 2
	octave 3
	note A_, 2
	octave 4
	note E_, 2
	note A_, 2
	note E_, 2
	octave 3
	note B_, 2
	octave 4
	note G_, 2
	octave 5
	note C_, 2
	octave 4
	note G_, 2
	octave 3
	note B_, 2
	note B_, 2
	rest 4
	note B_, 2
	note B_, 2
	rest 4
	note B_, 2
	note B_, 2
	rest 4
	note B_, 2
	octave 4
	note C_, 6
	octave 3
	note B_, 2
	note B_, 2
	rest 4
	note B_, 2
	note B_, 2
	rest 4
	note B_, 2
	note B_, 2
	rest 4
	note B_, 2
	octave 4
	note C_, 6
	octave 3
	note B_, 2
	note B_, 2
	rest 4
	note B_, 2
	note B_, 2
	rest 4
	note B_, 2
	note B_, 2
	rest 4
	note B_, 2
	octave 4
	note C_, 6
	octave 3
	note B_, 2
	note B_, 2
	rest 4
	note B_, 2
	note B_, 2
	rest 4
	note B_, 2
	note B_, 2
	rest 4
	note B_, 2
	octave 4
	note C_, 6
	octave 3
	note B_, 8
	note G_, 8
	octave 4
	note C_, 8
	octave 3
	note A_, 8
	note B_, 8
	note F#, 8
	note G_, 16
	rest 16
	rest 16
	rest 16
	rest 16
	sound_loop 0, Music_LegendaryBirds_Ch2.mainloop

Music_LegendaryBirds_Ch3::
	note_type 12, 1, 0
	rest 16
	rest 4
	octave 2
	note A_, 4
	note E_, 2
	note D_, 2
	note A#, 2
	note G_, 2
	note D_, 2
	octave 1
	note A_, 2
	octave 2
	note A_, 2
	octave 1
	note A_, 2
	octave 2
	note D_, 2
	note C_, 2
	note D_, 2
	note E_, 2
	note D_, 2
	octave 1
	note A_, 2
	octave 2
	note A_, 2
	octave 1
	note A_, 2
	octave 2
	note D_, 2
	note C_, 2
	note D_, 2
	note E_, 2
	note D_, 2
	octave 1
	note A_, 2
	octave 2
	note A_, 2
	octave 1
	note A_, 2
	octave 2
	note D_, 2
	note C_, 2
	note D_, 2
	note E_, 2
	note D_, 2
	octave 1
	note A_, 2
	octave 2
	note A_, 2
	octave 1
	note A_, 2
	octave 2
	note D_, 2
	note C_, 2
	note D_, 2
	note E_, 2
	note D_, 2
	octave 1
	note A_, 2
	octave 2
	note A_, 2
	octave 1
	note A_, 2
	octave 2
	note D_, 2
	note C_, 2
	note D_, 2
	note E_, 2
	note D_, 2
	octave 1
	note A_, 2
	octave 2
	note A_, 2
	octave 1
	note A_, 2
	octave 2
	note D_, 2
	note C_, 2
	note D_, 2
	note E_, 2
	note D_, 2
	octave 1
	note A_, 2
	octave 2
	note A_, 2
	octave 1
	note A_, 2
	octave 2
	note D_, 2
	note C_, 2
	note D_, 2
	note E_, 2
	note D_, 2
	octave 1
	note A_, 2
	octave 2
	note A_, 2
	octave 1
	note A_, 2
	octave 2
	note D_, 2
	note C_, 2
	note D_, 2
	note E_, 2
	note D_, 2
	octave 1
	note A_, 2
	octave 2
	note A_, 2
	octave 1
	note A_, 2
	octave 2
	note D_, 2
	note C_, 2
	note D_, 2
	note E_, 2
	note D_, 2
	octave 1
	note A_, 2
	octave 2
	note A_, 2
	octave 1
	note A_, 2
	octave 2
	note D_, 2
	note C_, 2
	note D_, 2
	note E_, 2
	note D_, 2
	octave 1
	note A_, 2
	octave 2
	note A_, 2
	octave 1
	note A_, 2
	octave 2
	note D_, 2
	note C_, 2
	note D_, 2
	note E_, 2
	note D_, 2
	octave 1
	note A_, 2
	octave 2
	note A_, 2
	octave 1
	note A_, 2
	octave 2
	note D_, 2
	note C_, 2
	note D_, 2
	note E_, 2
.mainloop:
	octave 2
	note C_, 2
	note F_, 2
	note G_, 2
	note E_, 2
	note C_, 2
	note D_, 2
	note F_, 2
	note E_, 2
	note C_, 2
	note F_, 2
	note G_, 2
	note E_, 2
	note C_, 2
	note D_, 2
	note F_, 2
	note E_, 2
	note C_, 2
	note F_, 2
	note G_, 2
	note E_, 2
	note C_, 2
	note D_, 2
	note F_, 2
	note E_, 2
	note C_, 2
	note F_, 2
	note G_, 2
	note E_, 2
	note C_, 2
	note D_, 2
	note F_, 2
	note E_, 2
	note D_, 2
	octave 1
	note A_, 2
	octave 2
	note A_, 2
	octave 1
	note A_, 2
	octave 2
	note D_, 2
	note C_, 2
	note D_, 2
	note E_, 2
	note D_, 2
	octave 1
	note A_, 2
	octave 2
	note A_, 2
	octave 1
	note A_, 2
	octave 2
	note D_, 2
	note C_, 2
	note D_, 2
	note E_, 2
	note D_, 2
	octave 1
	note A_, 2
	octave 2
	note A_, 2
	octave 1
	note A_, 2
	octave 2
	note D_, 2
	note C_, 2
	note D_, 2
	note E_, 2
	note D_, 2
	octave 1
	note A_, 2
	octave 2
	note A_, 2
	octave 1
	note A_, 2
	octave 2
	note D_, 2
	note C_, 2
	note D_, 2
	note E_, 2
	note C_, 2
	note F_, 2
	note G_, 2
	note E_, 2
	note C_, 2
	note D_, 2
	note F_, 2
	note E_, 2
	note C_, 2
	note F_, 2
	note G_, 2
	note E_, 2
	note C_, 2
	note D_, 2
	note F_, 2
	note E_, 2
	note C_, 2
	note F_, 2
	note G_, 2
	note E_, 2
	note C_, 2
	note D_, 2
	note F_, 2
	note E_, 2
	note C_, 2
	note F_, 2
	note G_, 2
	note E_, 2
	note C_, 2
	note D_, 2
	note F_, 2
	note E_, 2
	octave 1
	note B_, 2
	octave 2
	note B_, 2
	octave 1
	note B_, 2
	octave 2
	note B_, 2
	octave 1
	note B_, 2
	octave 2
	note B_, 2
	octave 1
	note B_, 2
	octave 2
	note B_, 2
	octave 1
	note B_, 2
	octave 2
	note B_, 2
	octave 1
	note B_, 2
	octave 2
	note B_, 2
	octave 1
	note B_, 2
	octave 2
	note B_, 2
	octave 1
	note B_, 2
	octave 2
	note B_, 2
	note C_, 2
	octave 3
	note C_, 2
	octave 2
	note C_, 2
	octave 3
	note C_, 2
	octave 2
	note C_, 2
	octave 3
	note C_, 2
	octave 2
	note C_, 2
	octave 3
	note C_, 2
	octave 2
	note C_, 2
	octave 3
	note C_, 2
	octave 2
	note C_, 2
	octave 3
	note C_, 2
	octave 2
	note C_, 2
	octave 3
	note C_, 2
	octave 2
	note C_, 2
	octave 3
	note C_, 2
	octave 2
	note D_, 2
	octave 3
	note D_, 2
	octave 2
	note D_, 2
	octave 3
	note D_, 2
	octave 2
	note D_, 2
	octave 3
	note D_, 2
	octave 2
	note D_, 2
	octave 3
	note D_, 2
	octave 2
	note D_, 2
	octave 3
	note D_, 2
	octave 2
	note D_, 2
	octave 3
	note D_, 2
	octave 2
	note D_, 2
	octave 3
	note D_, 2
	octave 2
	note D_, 2
	octave 3
	note D_, 2
	octave 2
	note C_, 2
	note A_, 2
	octave 3
	note C_, 2
	octave 2
	note A_, 2
	octave 1
	note B_, 2
	octave 2
	note G_, 2
	note B_, 2
	note G_, 2
	octave 1
	note A_, 2
	octave 2
	note G_, 2
	note A_, 2
	note F_, 2
	octave 1
	note G_, 2
	octave 2
	note F_, 2
	note G_, 2
	note F_, 2
	note F#, 2
	note F#, 2
	rest 4
	note F#, 2
	note F#, 2
	rest 4
	note F#, 2
	note F#, 2
	rest 4
	note F#, 2
	note G_, 6
	note F#, 2
	note F#, 2
	octave 1
	note B_, 4
	octave 2
	note F#, 2
	note F#, 2
	octave 1
	note B_, 4
	octave 2
	note F#, 2
	note F#, 2
	octave 1
	note B_, 4
	octave 2
	note F#, 2
	rest 3
	octave 4
	note A_, 1
	octave 5
	note D_, 1
	note F_, 1
	note F#, 2
	note F#, 2
	octave 1
	note B_, 4
	octave 5
	note F#, 2
	note F#, 2
	octave 1
	note B_, 4
	octave 5
	note F#, 2
	note F#, 2
	octave 1
	note B_, 4
	octave 5
	note F#, 2
	note G_, 6
	note F#, 2
	note F#, 2
	octave 1
	note B_, 4
	octave 5
	note F#, 2
	note F#, 2
	octave 1
	note B_, 4
	octave 5
	note F#, 2
	note F#, 2
	octave 1
	note B_, 4
	octave 5
	note F#, 2
	note G_, 6
	octave 3
	note F#, 8
	octave 2
	note B_, 8
	octave 3
	note G_, 8
	note E_, 8
	note F#, 8
	octave 2
	note B_, 8
	note C_, 10
	octave 3
	note C_, 2
	note D_, 2
	note C_, 2
	octave 2
	note B_, 8
	octave 3
	note E_, 8
	note C_, 8
	note F_, 8
	note E_, 8
	octave 2
	note B_, 8
	octave 3
	note C_, 16
	sound_loop 0, Music_LegendaryBirds_Ch3.mainloop

