Music_TeamRocketBattle::
	channel_count 3
	channel 1, Music_TeamRocketBattle_Ch1
	channel 2, Music_TeamRocketBattle_Ch2
	channel 3, Music_TeamRocketBattle_Ch3

Music_TeamRocketBattle_Ch1::
	tempo 144
	duty_cycle 2
	vibrato 8, 2, 3
	note_type 12, 11, 0
	octave 5
	note A_, 4
	note A#, 4
	note B_, 4
	octave 6
	note C_, 1
	octave 5
	note A_, 1
	note A#, 1
	note A_, 1
	octave 6
	note C#, 1
	octave 5
	note A_, 1
	note A#, 1
	note A_, 1
	octave 6
	note D_, 1
	octave 5
	note A_, 1
	note A#, 1
	note A_, 1
	octave 6
	note D#, 1
	octave 5
	note A_, 1
	note A#, 1
	note A_, 1
	octave 6
	note E_, 1
	octave 5
	note A_, 1
	note A#, 1
	note A_, 1
	octave 4
	note A_, 4
	rest 2
	note A_, 4
	octave 5
	note C_, 2
	octave 4
	note A#, 4
	note A_, 4
	rest 2
	note A_, 4
	octave 5
	note C_, 2
	octave 4
	note A#, 4
	note A_, 4
	rest 2
	note A_, 4
	octave 5
	note C_, 2
	octave 4
	note A#, 4
	note A_, 4
	rest 2
	note A_, 4
	rest 2
	note G#, 4
	octave 5
	note A_, 4
	rest 2
	note A_, 4
	octave 6
	note C_, 2
	octave 5
	note A#, 4
	note A_, 4
	rest 2
	note A_, 4
	octave 6
	note C_, 2
	octave 5
	note A#, 4
	note A_, 4
	rest 2
	note A_, 4
	octave 6
	note C_, 2
	octave 5
	note A#, 4
	note A_, 4
	rest 2
	note A_, 4
	note G_, 2
	note G#, 4
	note A_, 6
	note G#, 6
	note E_, 4
	note A_, 6
	note G#, 6
	note E_, 4
	note F_, 16
	note F_, 16
.mainloop:
	octave 5
	note A_, 6
	note G#, 6
	note E_, 4
	note A_, 6
	note G#, 6
	note E_, 4
	note F_, 16
	note A#, 16
	octave 4
	note A_, 2
	note G_, 2
	note A_, 2
	octave 5
	note C_, 4
	octave 4
	note A#, 2
	note A_, 2
	note G_, 2
	note A_, 2
	octave 5
	note C_, 3
	rest 1
	note C_, 10
	octave 4
	note A#, 2
	note A_, 2
	note A#, 2
	octave 5
	note D_, 4
	note C_, 2
	octave 4
	note A#, 2
	note A_, 2
	note A#, 2
	octave 5
	note D_, 3
	rest 1
	note D_, 10
	note A_, 6
	note G_, 6
	note F_, 4
	note E_, 6
	note F_, 6
	note G_, 4
	note A_, 6
	note A#, 6
	note G#, 4
	note A_, 16
	octave 4
	note D_, 16
	note C#, 16
	note D_, 16
	note E_, 16
	note F_, 16
	note E_, 16
	note F_, 16
	note A_, 16
	note F_, 16
	octave 5
	note D_, 8
	note C#, 8
	note E_, 16
	note A_, 16
	octave 4
	note A_, 4
	rest 2
	note A_, 4
	rest 2
	note A_, 4
	note A_, 4
	rest 2
	note A_, 4
	octave 5
	note C_, 2
	octave 4
	note A#, 4
	note A_, 4
	rest 2
	note A_, 4
	octave 5
	note C_, 2
	octave 4
	note A#, 4
	note A_, 4
	rest 2
	octave 5
	note G_, 1
	note G#, 1
	note A_, 8
	octave 4
	note A#, 4
	rest 2
	note A#, 4
	octave 5
	note D_, 2
	note C_, 4
	octave 4
	note A#, 4
	rest 2
	note A#, 4
	octave 5
	note D_, 2
	note C_, 4
	octave 4
	note A#, 4
	rest 2
	note A#, 4
	octave 5
	note D_, 2
	note C_, 4
	octave 4
	note A#, 4
	rest 2
	octave 5
	note G_, 1
	note A_, 1
	note A#, 8
	note A_, 6
	note G_, 6
	note A_, 4
	note A#, 6
	octave 6
	note D_, 6
	octave 5
	note A#, 4
	note A_, 6
	note G_, 6
	note A_, 4
	note A_, 16
	octave 4
	note A_, 6
	note G#, 6
	note E_, 4
	note A_, 6
	note G#, 6
	note E_, 4
	note F_, 16
	note A#, 16
	sound_loop 0, Music_TeamRocketBattle_Ch1.mainloop

Music_TeamRocketBattle_Ch2::
	duty_cycle 1
	vibrato 6, 2, 4
	note_type 12, 11, 0
	octave 5
	note E_, 1
	note D#, 1
	note D_, 1
	note C#, 1
	note D_, 1
	note C#, 1
	note C_, 1
	octave 4
	note B_, 1
	octave 5
	note C_, 1
	octave 4
	note B_, 1
	note A#, 1
	note A_, 1
	note A#, 1
	note A_, 1
	note G#, 1
	note G_, 1
	note G#, 1
	note G_, 1
	note F#, 1
	note F_, 1
	note F#, 1
	note F_, 1
	note E_, 1
	note D#, 1
	note E_, 1
	note D#, 1
	note D_, 1
	note C#, 1
	note D_, 1
	note C#, 1
	note C_, 1
	octave 3
	note B_, 1
	octave 4
	note C_, 4
	rest 2
	note C_, 4
	note E_, 2
	note D_, 4
	note C_, 4
	rest 2
	note C_, 4
	note E_, 2
	note D_, 4
	note C_, 4
	rest 2
	note C_, 4
	note E_, 2
	note D_, 4
	note C_, 4
	rest 2
	note C_, 4
	rest 2
	note D_, 4
	octave 5
	note E_, 4
	rest 2
	note E_, 4
	note G_, 2
	note F_, 4
	note E_, 4
	rest 2
	note E_, 4
	note G_, 2
	note F_, 4
	note E_, 4
	rest 2
	note E_, 4
	note G_, 2
	note F_, 4
	note E_, 4
	rest 2
	note E_, 4
	note D_, 2
	note D#, 4
	note C_, 2
	octave 4
	note E_, 2
	note E_, 2
	note A#, 2
	note F_, 2
	note F_, 2
	note A_, 2
	note D_, 2
	note D_, 2
	octave 5
	note C_, 2
	octave 4
	note E_, 2
	note E_, 2
	note A_, 2
	note E_, 2
	note D_, 2
	note E_, 2
	note F_, 2
	note E_, 2
	note F_, 2
	note G_, 4
	note G_, 2
	note F_, 2
	note D#, 2
	note D_, 2
	note C#, 2
	note D_, 2
	note D#, 4
	note D#, 2
	note D_, 2
	note F_, 2
.mainloop:
	octave 5
	note E_, 2
	octave 4
	note E_, 2
	note E_, 2
	octave 5
	note D_, 2
	octave 4
	note F_, 2
	note F_, 2
	octave 5
	note C_, 2
	octave 4
	note D_, 2
	note D_, 2
	octave 5
	note E_, 2
	octave 4
	note E_, 2
	note E_, 2
	octave 5
	note D_, 2
	octave 4
	note E_, 2
	note D_, 2
	note E_, 2
	note F_, 2
	note E_, 2
	note F_, 2
	note G_, 4
	note G_, 2
	note F_, 2
	note A_, 2
	octave 5
	note D_, 2
	note C_, 2
	note D_, 2
	note F_, 4
	octave 4
	note F_, 2
	note G_, 2
	note G#, 2
	rest 2
	note D_, 4
	note C_, 4
	note D_, 4
	note E_, 2
	note F_, 2
	note A_, 3
	rest 1
	note A_, 4
	note A_, 2
	note G_, 2
	note F_, 2
	rest 2
	note D_, 4
	note C_, 4
	note D_, 4
	note E_, 2
	note F_, 2
	note E_, 2
	note D_, 2
	note C_, 2
	note A#, 2
	note G_, 2
	note A_, 2
	note A#, 2
	octave 5
	note E_, 6
	note D_, 4
	octave 4
	note G_, 2
	note A#, 4
	note A_, 6
	note G_, 4
	note E_, 2
	note F_, 4
	note E_, 6
	note D_, 6
	note D#, 4
	note E_, 16
	octave 3
	note A_, 8
	note G_, 8
	note A_, 8
	note A#, 8
	note A_, 8
	note G_, 8
	note A_, 8
	octave 4
	note C#, 8
	note D_, 8
	note C#, 8
	octave 3
	note A#, 8
	note A_, 8
	octave 4
	note D_, 8
	note C#, 8
	note D_, 8
	note E_, 8
	octave 3
	note A#, 6
	octave 4
	note D_, 6
	note C_, 4
	octave 3
	note A#, 2
	octave 4
	note C_, 2
	note D_, 2
	note E_, 2
	note F_, 2
	note G_, 2
	note A_, 2
	note A#, 2
	note A_, 2
	note E_, 2
	note A_, 2
	note A#, 2
	note A_, 2
	note E_, 2
	note D_, 2
	note E_, 2
	note A_, 2
	note E_, 2
	note A_, 2
	octave 5
	note C#, 2
	note D_, 2
	note C#, 2
	octave 4
	note A#, 2
	note G_, 2
	note E_, 4
	rest 2
	note E_, 4
	rest 2
	note E_, 4
	note E_, 4
	rest 2
	note E_, 4
	note G_, 2
	note F_, 4
	note E_, 4
	rest 2
	note E_, 4
	note G_, 2
	note F_, 4
	note E_, 4
	rest 2
	octave 5
	note D_, 1
	note D#, 1
	note E_, 8
	octave 4
	note F_, 4
	rest 2
	note F_, 4
	note A#, 2
	note G_, 4
	note F_, 4
	rest 2
	note F_, 4
	note A_, 2
	note G_, 4
	note F_, 4
	rest 2
	note F_, 4
	note A_, 2
	note G_, 4
	note F_, 4
	rest 2
	octave 5
	note D_, 1
	note E_, 1
	note F_, 8
	note D_, 2
	octave 4
	note A_, 2
	note E_, 2
	note A_, 4
	note A_, 2
	octave 5
	note D_, 4
	note D#, 2
	octave 4
	note A#, 2
	note G_, 2
	note A#, 4
	note A#, 2
	octave 5
	note D_, 4
	note E_, 2
	note C_, 2
	octave 4
	note A_, 2
	octave 5
	note C_, 4
	note C_, 2
	note D#, 4
	note E_, 10
	octave 4
	note G#, 6
	note C_, 2
	note E_, 2
	note E_, 2
	octave 3
	note A#, 2
	octave 4
	note F_, 2
	note F_, 2
	octave 3
	note A_, 2
	octave 4
	note D_, 2
	note D_, 2
	note C_, 2
	note E_, 2
	note E_, 2
	octave 3
	note A_, 2
	octave 4
	note E_, 2
	note D_, 2
	note C_, 2
	note C_, 2
	octave 3
	note A#, 2
	octave 4
	note C_, 2
	note D_, 4
	note D_, 2
	note C_, 2
	octave 3
	note A#, 2
	octave 4
	note D_, 2
	note C#, 2
	note D_, 2
	note D#, 4
	note D#, 2
	note D_, 2
	note F_, 2
	sound_loop 0, Music_TeamRocketBattle_Ch2.mainloop

Music_TeamRocketBattle_Ch3::
	note_type 12, 1, 0
	octave 3
	note A_, 2
	octave 4
	note E_, 2
	octave 3
	note G#, 2
	octave 4
	note E_, 2
	octave 3
	note G_, 2
	octave 4
	note E_, 2
	octave 3
	note F#, 2
	octave 4
	note E_, 2
	octave 3
	note F_, 2
	octave 4
	note E_, 2
	octave 3
	note E_, 2
	octave 4
	note E_, 2
	octave 2
	note B_, 2
	octave 3
	note C_, 2
	octave 2
	note B_, 2
	note A#, 2
	note A_, 2
	octave 3
	note E_, 2
	note D_, 2
	octave 2
	note A_, 2
	note A#, 2
	octave 3
	note E_, 2
	note G_, 2
	note F_, 2
	octave 2
	note A_, 2
	octave 3
	note E_, 2
	note D_, 2
	octave 2
	note A_, 2
	note A#, 2
	octave 3
	note E_, 2
	note G_, 2
	note F_, 2
	octave 2
	note A_, 2
	octave 3
	note E_, 2
	note D_, 2
	octave 2
	note A_, 2
	note A#, 2
	octave 3
	note E_, 2
	note G_, 2
	note F_, 2
	octave 2
	note A_, 2
	octave 3
	note E_, 2
	note D_, 2
	octave 2
	note A_, 2
	octave 3
	note G_, 2
	note F_, 2
	note E_, 2
	note D_, 2
	octave 2
	note A_, 2
	octave 3
	note E_, 2
	note D_, 2
	octave 2
	note A_, 2
	note A#, 2
	octave 3
	note E_, 2
	note G_, 2
	note F_, 2
	octave 2
	note A_, 2
	octave 3
	note E_, 2
	note D_, 2
	octave 2
	note A_, 2
	note A#, 2
	octave 3
	note E_, 2
	note G_, 2
	note F_, 2
	octave 2
	note A_, 2
	octave 3
	note E_, 2
	note D_, 2
	octave 2
	note A_, 2
	note A#, 2
	octave 3
	note E_, 2
	note G_, 2
	note F_, 2
	octave 2
	note A_, 2
	octave 3
	note E_, 2
	note D_, 2
	octave 2
	note A_, 2
	octave 3
	note G_, 2
	octave 2
	note G_, 2
	note A_, 2
	note A#, 2
	note A_, 2
	octave 3
	note E_, 2
	octave 2
	note A_, 2
	octave 3
	note E_, 2
	octave 2
	note A_, 2
	octave 3
	note E_, 2
	note D#, 2
	note E_, 2
	octave 2
	note A_, 2
	octave 3
	note E_, 2
	octave 2
	note A_, 2
	octave 3
	note E_, 2
	octave 2
	note A_, 2
	octave 3
	note E_, 2
	note D#, 2
	note D_, 2
	octave 2
	note A#, 2
	octave 3
	note F_, 2
	note A#, 2
	octave 2
	note A#, 2
	octave 3
	note F_, 2
	note A#, 2
	octave 2
	note A#, 2
	octave 3
	note F_, 2
	octave 2
	note A#, 2
	octave 3
	note F_, 2
	note A#, 2
	note F_, 2
	note A#, 2
	note F_, 2
	octave 2
	note A#, 2
	octave 3
	note F_, 2
.mainloop:
	octave 2
	note A_, 2
	octave 3
	note E_, 2
	octave 2
	note A_, 2
	octave 3
	note E_, 2
	octave 2
	note A_, 2
	octave 3
	note E_, 2
	note D#, 2
	note E_, 2
	octave 2
	note A_, 2
	octave 3
	note E_, 2
	octave 2
	note A_, 2
	octave 3
	note E_, 2
	octave 2
	note A_, 2
	octave 3
	note E_, 2
	note D#, 2
	note D_, 2
	octave 2
	note A#, 2
	octave 3
	note F_, 2
	note A#, 2
	octave 2
	note A#, 2
	octave 3
	note F_, 2
	note A#, 2
	octave 2
	note A#, 2
	octave 3
	note F_, 2
	octave 2
	note A#, 2
	octave 3
	note F_, 2
	octave 2
	note A#, 2
	octave 3
	note F_, 2
	octave 2
	note A#, 2
	octave 3
	note F_, 2
	note E_, 2
	note D_, 2
	octave 2
	note A_, 2
	octave 3
	note E_, 2
	octave 2
	note A_, 2
	octave 3
	note E_, 2
	octave 2
	note A_, 2
	octave 3
	note E_, 2
	octave 2
	note A_, 2
	octave 3
	note E_, 2
	octave 2
	note A_, 2
	octave 3
	note E_, 2
	note A_, 2
	octave 2
	note A_, 2
	octave 3
	note E_, 2
	note A_, 2
	octave 2
	note A_, 2
	octave 3
	note E_, 2
	octave 2
	note A#, 2
	octave 3
	note F_, 2
	octave 2
	note A#, 2
	octave 3
	note F_, 2
	octave 2
	note A#, 2
	octave 3
	note F_, 2
	octave 2
	note A#, 2
	octave 3
	note F_, 2
	octave 2
	note A#, 2
	octave 3
	note F_, 2
	note A#, 2
	octave 2
	note A#, 2
	octave 3
	note F_, 2
	note A#, 2
	octave 2
	note A#, 2
	octave 3
	note A#, 2
	octave 2
	note A_, 2
	octave 3
	note E_, 2
	octave 2
	note A_, 2
	octave 3
	note E_, 2
	octave 2
	note A_, 2
	octave 3
	note E_, 2
	octave 2
	note A_, 2
	octave 3
	note E_, 2
	octave 2
	note A_, 2
	octave 3
	note E_, 2
	octave 2
	note A_, 2
	octave 3
	note E_, 2
	octave 2
	note A_, 2
	octave 3
	note F_, 2
	note E_, 2
	note D_, 2
	octave 2
	note A_, 2
	octave 3
	note E_, 2
	octave 2
	note A_, 2
	octave 3
	note E_, 2
	octave 2
	note A_, 2
	octave 3
	note E_, 2
	octave 2
	note A_, 2
	octave 3
	note E_, 2
	octave 2
	note A_, 2
	octave 3
	note E_, 2
	octave 2
	note A_, 2
	octave 3
	note E_, 2
	octave 2
	note A_, 2
	octave 3
	note E_, 2
	octave 2
	note A_, 2
	octave 3
	note E_, 2
	octave 2
	note A_, 2
	octave 3
	note E_, 2
	note D_, 2
	octave 2
	note A#, 2
	note A_, 2
	octave 3
	note D_, 2
	note G_, 2
	note F_, 2
	octave 2
	note A_, 2
	octave 3
	note E_, 2
	note D_, 2
	octave 2
	note A#, 2
	note A_, 2
	octave 3
	note D_, 2
	note G_, 2
	note F_, 2
	octave 2
	note A_, 2
	octave 3
	note E_, 2
	note D_, 2
	octave 2
	note A#, 2
	note A_, 2
	octave 3
	note D_, 2
	note G_, 2
	note F_, 2
	octave 2
	note A_, 2
	octave 3
	note E_, 2
	note D_, 2
	octave 2
	note A#, 2
	note A_, 2
	octave 3
	note D_, 2
	note G_, 2
	note F_, 2
	octave 2
	note A_, 2
	octave 3
	note E_, 2
	note D_, 2
	octave 2
	note A#, 2
	note A_, 2
	octave 3
	note D_, 2
	note G_, 2
	note F_, 2
	octave 2
	note A_, 2
	octave 3
	note E_, 2
	note D_, 2
	octave 2
	note A#, 2
	note A_, 2
	octave 3
	note D_, 2
	note G_, 2
	note F_, 2
	octave 2
	note A_, 2
	octave 3
	note E_, 2
	note D_, 2
	octave 2
	note A#, 2
	note A_, 2
	octave 3
	note D_, 2
	note G_, 2
	note F_, 2
	octave 2
	note A_, 2
	octave 3
	note E_, 2
	note D_, 2
	octave 2
	note A#, 2
	note A_, 2
	octave 3
	note A_, 2
	note G_, 2
	note F_, 2
	octave 2
	note A#, 2
	octave 3
	note F_, 2
	octave 2
	note A#, 2
	octave 3
	note F_, 2
	octave 2
	note A#, 2
	octave 3
	note F_, 2
	octave 2
	note A#, 2
	octave 3
	note F_, 2
	octave 2
	note A#, 2
	octave 3
	note F_, 2
	note G_, 2
	note F_, 2
	note E_, 2
	note D_, 2
	note C#, 2
	note D_, 2
	octave 2
	note A_, 2
	octave 3
	note E_, 2
	octave 2
	note A_, 2
	octave 3
	note E_, 2
	octave 2
	note A_, 2
	octave 3
	note E_, 2
	octave 2
	note A_, 2
	octave 3
	note E_, 2
	octave 2
	note A_, 2
	octave 3
	note E_, 2
	octave 2
	note A_, 2
	octave 3
	note E_, 2
	octave 2
	note A_, 2
	octave 3
	note E_, 2
	octave 2
	note A_, 2
	octave 3
	note E_, 2
	octave 2
	note A_, 2
	octave 3
	note E_, 2
	octave 2
	note A_, 2
	octave 3
	note E_, 2
	octave 2
	note A_, 2
	octave 3
	note E_, 2
	octave 2
	note A_, 2
	octave 3
	note E_, 2
	octave 2
	note A_, 2
	octave 3
	note E_, 2
	octave 2
	note A_, 2
	octave 3
	note E_, 4
	note D_, 2
	note C_, 2
	octave 2
	note A#, 2
	note A_, 2
	octave 3
	note E_, 2
	octave 2
	note A_, 2
	octave 3
	note E_, 2
	octave 2
	note A_, 2
	octave 3
	note E_, 2
	octave 2
	note A_, 2
	octave 3
	note E_, 2
	octave 2
	note A_, 2
	octave 4
	note D_, 2
	octave 3
	note A_, 2
	note A#, 4
	note A_, 2
	note G_, 2
	note A#, 2
	octave 2
	note A#, 2
	octave 3
	note F_, 2
	octave 2
	note A#, 2
	octave 3
	note F_, 2
	octave 2
	note A#, 2
	octave 3
	note F_, 2
	octave 2
	note A#, 2
	octave 3
	note F_, 2
	octave 2
	note A#, 2
	octave 3
	note F_, 2
	octave 2
	note A#, 2
	octave 3
	note F_, 2
	octave 2
	note A#, 2
	octave 3
	note F_, 2
	note E_, 2
	note F_, 2
	octave 2
	note A#, 2
	octave 3
	note F_, 2
	octave 2
	note A#, 2
	octave 3
	note F_, 2
	octave 2
	note A#, 2
	octave 3
	note F_, 2
	octave 2
	note A#, 2
	octave 3
	note F_, 2
	octave 2
	note A#, 2
	octave 3
	note F_, 2
	note A#, 2
	octave 4
	note D_, 4
	note C_, 2
	octave 3
	note A#, 2
	note G_, 2
	octave 2
	note A_, 2
	octave 3
	note E_, 2
	note A_, 2
	octave 2
	note A_, 2
	octave 3
	note E_, 2
	note A_, 2
	octave 2
	note A_, 2
	octave 3
	note E_, 2
	octave 2
	note A#, 2
	octave 3
	note F_, 2
	note A#, 2
	octave 2
	note A#, 2
	octave 3
	note F_, 2
	note A#, 2
	octave 2
	note A#, 2
	octave 3
	note F_, 2
	octave 2
	note A_, 2
	octave 3
	note E_, 2
	note A_, 2
	octave 2
	note A_, 2
	octave 3
	note E_, 2
	note A_, 2
	octave 2
	note A_, 2
	octave 3
	note A_, 2
	octave 2
	note A_, 2
	octave 3
	note E_, 2
	octave 2
	note A_, 2
	octave 3
	note E_, 2
	octave 2
	note A_, 2
	octave 3
	note E_, 2
	octave 2
	note A_, 2
	octave 3
	note E_, 2
	octave 2
	note A_, 2
	octave 3
	note E_, 2
	octave 2
	note A_, 2
	octave 3
	note E_, 2
	octave 2
	note A_, 2
	octave 3
	note E_, 2
	note D#, 2
	note E_, 2
	octave 2
	note A_, 2
	octave 3
	note E_, 2
	octave 2
	note A_, 2
	octave 3
	note E_, 2
	octave 2
	note A_, 2
	octave 3
	note E_, 2
	note D#, 2
	note D_, 2
	octave 2
	note A#, 2
	octave 3
	note F_, 2
	note A#, 2
	octave 2
	note A#, 2
	octave 3
	note F_, 2
	note A#, 2
	octave 2
	note A#, 2
	octave 3
	note F_, 2
	octave 2
	note A#, 2
	octave 3
	note F_, 2
	note A#, 2
	note F_, 2
	note A#, 2
	note F_, 2
	octave 2
	note A#, 2
	octave 3
	note F_, 2
	sound_loop 0, Music_TeamRocketBattle_Ch3.mainloop

